<svg xmlns="http://www.w3.org/2000/svg" version="1.1" xmlns:xlink="http://www.w3.org/1999/xlink" xmlns:svgjs="http://svgjs.dev/svgjs" id="BgenPttrnSvgRootPreview" width="100%" height="100%"><defs><pattern x="0" y="0" width="1" height="1" patternUnits="userSpaceOnUse" id="BgenPttrnLayer1"><g id="PatternRootContent1"><g id="BgenPttrnLayer1background"><rect width="1" height="1" id="BgenPttrnBackground1" class="color_1 fill_color_1" fill="#210018"></rect></g></g></pattern><pattern x="0" y="0" width="78" height="136" patternUnits="userSpaceOnUse" id="BgenPttrnLayer2" patternTransform="matrix(1,0,0,1,0,0)"><g id="PatternRootContent2"><g id="BgenPttrnLayer2Element3"><use xlink:href="#BgenPttrnElement3" x="36.68165588378906" y="-71.65011596679688" transform="translate(78, -34) scale(1) translate(-78, 34) rotate(90, 78, -34)"></use><use xlink:href="#BgenPttrnElement3" x="-41.31834411621094" y="-71.65011596679688" transform="translate(0, -34) scale(1) translate(0, 34) rotate(90, 0, -34)"></use><use xlink:href="#BgenPttrnElement3" x="-2.3183441162109375" y="-3.650115966796875" transform="translate(39, 34) scale(1) translate(-39, -34) rotate(90, 39, 34)"></use><use xlink:href="#BgenPttrnElement3" x="-80.31834411621094" y="-3.650115966796875" transform="translate(-39, 34) scale(1) translate(39, -34) rotate(90, -39, 34)"></use><use xlink:href="#BgenPttrnElement3" x="75.68165588378906" y="-3.650115966796875" transform="translate(117, 34) scale(1) translate(-117, -34) rotate(90, 117, 34)"></use><use xlink:href="#BgenPttrnElement3" x="36.68165588378906" y="64.34988403320312" transform="translate(78, 102) scale(1) translate(-78, -102) rotate(90, 78, 102)"></use><use xlink:href="#BgenPttrnElement3" x="-41.31834411621094" y="64.34988403320312" transform="translate(0, 102) scale(1) translate(0, -102) rotate(90, 0, 102)"></use><use xlink:href="#BgenPttrnElement3" x="-2.3183441162109375" y="132.34988403320312" transform="translate(39, 170) scale(1) translate(-39, -170) rotate(90, 39, 170)"></use><use xlink:href="#BgenPttrnElement3" x="-2.3183441162109375" y="132.34988403320312" transform="translate(39, 170) scale(1) translate(-39, -170) rotate(90, 39, 170)"></use></g></g></pattern><symbol id="BgenPttrnElement3"><g class="color_4 fill_color_4" fill="#7d6868"><path d="M51.118,58.1983642578125L45.348,47.918365478515625C45.248,47.839,44.948,47.269,44.348,47.26836395263672C44.098,47.269,43.748,47.369,43.388,47.918365478515625L42.648,49.098365783691406L40.628,45.488365173339844C40.578,45.389,40.228,44.839,39.628,44.83836364746094C39.378,44.839,38.978,44.939,38.678,45.488365173339844L31.498,58.14836120605469C31.448,58.249,31.148,58.839,31.448,59.33836364746094C31.548,59.589,31.848,59.839,32.508,59.83836364746094L50.168,59.83836364746094C50.268,59.839,50.918,59.839,51.218,59.33836364746094C51.318,59.099,51.418,58.699,51.118,58.1983642578125M37.418,58.14836120605469L37.268,58.6983642578125L32.558,58.6983642578125L39.678,46.17836380004883L41.978,50.30836486816406L37.418,58.14836120605469M38.528,58.6983642578125L42.638,51.49836349487305L46.818,58.6983642578125L38.528,58.6983642578125M48.058,58.6983642578125L47.858,58.14836120605469L43.318,50.298362731933594L44.348,48.568363189697266L50.068,58.6983642578125L48.058,58.6983642578125Z" transform="matrix(1,0,0,1,0,0)"></path><path d="M41.302,75.1454086303711L53.09,75.28844451904297C53.209,75.242,53.853,75.267,54.153,74.74742126464844C54.278,74.531,54.366,74.178,54.07,73.59103393554688L53.418,72.36017608642578L57.554,72.41580200195312C57.666,72.423,58.317,72.395,58.617,71.8747787475586C58.742,71.659,58.856,71.262,58.529,70.72705078125L51.156,58.178993225097656C51.094,58.086,50.733,57.531,50.15,57.54069137573242C49.883,57.503,49.517,57.638,49.187,58.20867919921875L40.357,73.502685546875C40.307,73.59,39.982,74.153,40.265,74.6620101928711C40.423,74.869,40.719,75.156,41.302,75.1454086303711M48.196,63.30586242675781L47.794,62.90095520019531L50.149,58.82197952270508L57.432,71.24807739257812L52.705,71.17494201660156L48.196,63.30586242675781M47.164,63.992149353027344L51.345,71.1515121459961L43.019,71.17150115966797L47.164,63.992149353027344M42.399,72.24536895751953L42.976,72.34716796875L52.044,72.34040832519531L53.027,74.09741973876953L41.394,73.986083984375L42.399,72.24536895751953Z" transform="matrix(1,0,0,1,0,0)"></path><path d="M31.533,58.17131042480469L25.516,68.30827331542969C25.496,68.435,25.153,68.98,25.453,69.49929809570312C25.578,69.716,25.839,69.969,26.496,70.00568389892578L27.888,70.05654907226562L25.771,73.61091613769531C25.71,73.705,25.408,74.283,25.708,74.80194091796875C25.833,75.019,26.12,75.315,26.746,75.29966735839844L41.3,75.18772888183594C41.412,75.181,42.073,75.146,42.356,74.63603210449219C42.522,74.425,42.589,74.04,42.259,73.4680404663086L33.429,58.174034118652344C33.379,58.088,33.054,57.525,32.471,57.51470947265625C32.213,57.549,31.816,57.662,31.533,58.17131042480469M38.34,70.06085968017578L38.891,69.91576385498047L41.246,73.99474334716797L26.844,74.08863830566406L29.271,70.03178405761719L38.34,70.06085968017578M38.261,68.82456970214844L29.971,68.86520385742188L34.116,61.64521789550781L38.261,68.82456970214844M33.496,60.571346282958984L33.12,61.019554138183594L28.592,68.87631225585938L26.579,68.84930419921875L32.491,58.83063507080078L33.496,60.571346282958984Z" transform="matrix(1,0,0,1,0,0)"></path><path d="M28.423,56.41138458251953L34.441,46.274417877197266C34.46,46.148,34.804,45.603,34.504,45.08339309692383C34.379,44.867,34.117,44.614,33.461,44.57700729370117L32.069,44.52614974975586L34.185,40.971778869628906C34.247,40.879,34.548,40.3,34.248,39.78075408935547C34.123,39.564,33.836,39.268,33.21,39.28302764892578L18.656,39.39496612548828C18.545,39.402,17.884,39.437,17.601,39.9466667175293C17.434,40.158,17.368,40.543,17.698,41.11465072631836L26.528,56.408660888671875C26.578,56.495,26.903,57.058,27.486,57.06798553466797C27.744,57.035,28.14,56.921,28.423,56.41138458251953M21.616,44.52183532714844L21.065,44.666934967041016L18.71,40.58795166015625L33.113,40.49405288696289L30.686,44.55091094970703L21.616,44.52183532714844M21.695,45.75812530517578L29.985,45.71748733520508L25.84,52.937477111816406L21.695,45.75812530517578M26.46,54.011348724365234L26.836,53.563140869140625L31.365,45.70638656616211L33.378,45.733394622802734L27.465,55.75205993652344L26.46,54.011348724365234Z" transform="matrix(1,0,0,1,0,0)"></path><path d="M8.839,56.384002685546875L14.609,66.66423034667969C14.709,66.744,15.009,67.314,15.609,67.31430053710938C15.859,67.314,16.209,67.214,16.569,66.66423034667969L17.309,65.48414611816406L19.328,69.0938491821289C19.379,69.194,19.728,69.744,20.328,69.7439193725586C20.578,69.744,20.979,69.644,21.278,69.09384155273438L28.459,56.434608459472656C28.509,56.334,28.809,55.744,28.509,55.24423599243164C28.408,54.994,28.108,54.744,27.449,54.74424743652344L9.789,54.74424743652344C9.688,54.744,9.038,54.744,8.739,55.24423599243164C8.639,55.484,8.538,55.884,8.839,56.384002685546875M22.539,56.434608459472656L22.689,55.88401412963867L27.399,55.88401412963867L20.279,68.40432739257812L17.979,64.27405548095703L22.539,56.434608459472656M21.429,55.88401412963867L17.319,63.08454895019531L13.139,55.88401412963867L21.429,55.88401412963867M11.899,55.88401412963867L12.099,56.434608459472656L16.639,64.28434753417969L15.609,66.01416015625L9.889,55.88401412963867L11.899,55.88401412963867Z" transform="matrix(1,0,0,1,0,0)"></path><path d="M18.654,39.43675231933594L6.867,39.29435729980469C6.747,39.34,6.104,39.316,5.804,39.83531188964844C5.679,40.052,5.59,40.404,5.887,40.99176788330078L6.539,42.22270584106445L2.402,42.1665153503418C2.29,42.161,1.639,42.188,1.339,42.70746612548828C1.214,42.924,1.101,43.321,1.427,43.85526657104492L8.801,56.4034309387207C8.863,56.497,9.224,57.052,9.807,57.0421028137207C10.073,57.08,10.44,56.946,10.77,56.37410354614258L19.6,41.08009719848633C19.65,40.994,19.975,40.431,19.692,39.920780181884766C19.533,39.714,19.237,39.427,18.654,39.43675231933594M11.761,51.27655792236328L12.162,51.681190490722656L9.807,55.760169982910156L2.525,43.33462142944336L7.252,43.40803909301758L11.761,51.27655792236328M12.792,50.59000015258789L8.612,43.430965423583984L16.937,43.410648345947266L12.792,50.59000015258789M17.557,42.33677673339844L16.981,42.235252380371094L7.913,42.24226760864258L6.93,40.48545837402344L18.562,40.596065521240234L17.557,42.33677673339844Z" transform="matrix(1,0,0,1,0,0)"></path><path d="M18.623,35.86310577392578L30.411,36.006141662597656C30.53,35.96,31.173,35.985,31.474,35.46511459350586C31.598,35.249,31.687,34.895,31.391,34.30873107910156L30.739,33.0778694152832L34.875,33.13349914550781C34.987,33.14,35.638,33.112,35.938,32.59247589111328C36.063,32.376,36.176,31.98,35.85,31.444751739501953L28.476,18.89668846130371C28.415,18.803,28.054,18.249,27.471,18.258386611938477C27.204,18.22,26.838,18.355,26.508,18.926374435424805L17.678,34.22038269042969C17.628,34.307,17.303,34.87,17.586,35.37970733642578C17.743,35.586,18.04,35.873,18.623,35.86310577392578M25.516,24.0235595703125L25.115,23.618654251098633L27.47,19.539674758911133L34.753,31.965776443481445L30.026,31.89263343811035L25.516,24.0235595703125M24.485,24.70984649658203L28.665,31.869211196899414L20.34,31.889196395874023L24.485,24.70984649658203M19.72,32.963069915771484L20.296,33.06486511230469L29.365,33.058109283447266L30.348,34.81511688232422L18.715,34.70378112792969L19.72,32.963069915771484Z" transform="matrix(1,0,0,1,0,0)"></path><path d="M8.854,18.8886775970459L2.836,29.025869369506836C2.818,29.152,2.474,29.698,2.774,30.21696662902832C2.899,30.434,3.161,30.686,3.816,30.723278045654297L5.208,30.774059295654297L3.092,34.328128814697266C3.03,34.422,2.729,35,3.029,35.51922607421875C3.154,35.736,3.441,36.033,4.067,36.016876220703125L18.621,35.90570068359375C18.733,35.899,19.394,35.864,19.677,35.35363006591797C19.843,35.142,19.909,34.757,19.58,34.18565368652344L10.75,18.891645431518555C10.699,18.805,10.374,18.242,9.792,18.232309341430664C9.534,18.266,9.137,18.379,8.854,18.8886775970459M15.661,30.778831481933594L16.212,30.633140563964844L18.567,34.712120056152344L4.165,34.806331634521484L6.591,30.74920082092285L15.661,30.778831481933594M15.582,29.541950225830078L7.292,29.583118438720703L11.437,22.362598419189453L15.582,29.541950225830078M10.817,21.288726806640625L10.441,21.737525939941406L5.913,29.59402084350586L3.899,29.566822052001953L9.812,19.548015594482422L10.817,21.288726806640625Z" transform="matrix(1,0,0,1,0,0)"></path><path d="M28.439,18.915525436401367L22.669,8.636168479919434C22.569,8.556,22.269,7.986,21.669,7.986095905303955C21.419,7.986,21.069,8.086,20.708,8.636168479919434L19.968,9.816245079040527L17.949,6.205684661865234C17.898,6.106,17.549,5.556,16.949,5.555612564086914C16.699,5.556,16.299,5.656,15.999,6.205683708190918L8.819,18.865787506103516C8.769,18.966,8.469,19.556,8.769,20.05615997314453C8.869,20.306,9.169,20.556,9.829,20.556148529052734L27.489,20.556148529052734C27.588,20.556,28.239,20.556,28.539,20.0561580657959C28.638,19.816,28.739,19.416,28.439,18.915525436401367M14.739,18.865785598754883L14.589,19.41551399230957L9.879,19.41551399230957L16.999,6.896068572998047L19.298,11.02634048461914L14.739,18.865785598754883M15.849,19.415515899658203L19.959,12.215846061706543L24.139,19.415515899658203L15.849,19.415515899658203M25.379,19.415515899658203L25.179,18.865787506103516L20.639,11.016046524047852L21.668,9.286240577697754L27.389,19.415515899658203L25.379,19.415515899658203Z" transform="matrix(1,0,0,1,0,0)"></path><path d="M31.518,17.101806640625L37.288,27.381807327270508C37.388,27.462,37.688,28.032,38.288,28.03180694580078C38.538,28.032,38.888,27.932,39.248,27.381807327270508L39.988,26.201807022094727L42.008,29.81180763244629C42.058,29.912,42.408,30.462,43.008,30.461807250976562C43.258,30.462,43.658,30.362,43.958,29.81180763244629L51.138,17.15180778503418C51.188,17.052,51.488,16.462,51.188,15.961807250976562C51.088,15.712,50.788,15.462,50.128,15.461807250976562L32.468,15.461807250976562C32.368,15.462,31.718,15.462,31.418,15.961807250976562C31.318,16.202,31.218,16.602,31.518,17.101806640625M45.218,17.15180778503418L45.368,16.601806640625L50.078,16.601806640625L42.958,29.121807098388672L40.658,24.99180793762207L45.218,17.15180778503418M44.108,16.601806640625L39.998,23.801807403564453L35.818,16.601806640625L44.108,16.601806640625M34.578,16.601806640625L34.778,17.15180778503418L39.318,25.001808166503906L38.288,26.731807708740234L32.568,16.601806640625L34.578,16.601806640625Z" transform="matrix(1,0,0,1,0,0)"></path><path d="M41.334,0.15476226806640625L29.546,0.01172637939453125C29.427,0.059,28.783,0.034,28.483,0.5527534484863281C28.358,0.77,28.27,1.123,28.566,1.709136962890625L29.218,2.9399967193603516L25.082,2.884366989135742C24.97,2.878,24.319,2.906,24.019,3.4253921508789062C23.894,3.642,23.78,4.039,24.107,4.573116302490234L31.48,17.121177673339844C31.542,17.215,31.903,17.77,32.486,17.759479522705078C32.753,17.798,33.119,17.663,33.449,17.091493606567383L42.279,1.7974853515625C42.329,1.711,42.654,1.148,42.371,0.6381607055664062C42.213,0.432,41.917,0.145,41.334,0.15476226806640625M34.44,11.994308471679688L34.842,12.399213790893555L32.487,16.478191375732422L25.204,4.052091598510742L29.931,4.125232696533203L34.44,11.994308471679688M35.472,11.308021545410156L31.291,4.148656845092773L39.617,4.128669738769531L35.472,11.308021545410156M40.237,3.054800033569336L39.66,2.9530029296875L30.592,2.959758758544922L29.609,1.2027511596679688L41.242,1.3140869140625L40.237,3.054800033569336Z" transform="matrix(1,0,0,1,0,0)"></path><path d="M51.103,17.128860473632812L57.12,6.99189567565918C57.14,6.866,57.483,6.321,57.183,5.800868988037109C57.058,5.585,56.797,5.332,56.14,5.294485092163086L54.748,5.243625640869141L56.865,1.6892547607421875C56.926,1.596,57.228,1.018,56.928,0.49822998046875C56.803,0.282,56.516,-0.014,55.89,0.0005035400390625L41.336,0.1124420166015625C41.224,0.12,40.563,0.155,40.28,0.6641426086425781C40.114,0.876,40.047,1.261,40.377,1.8321285247802734L49.207,17.126136779785156C49.257,17.213,49.582,17.776,50.165,17.785463333129883C50.423,17.752,50.82,17.639,51.103,17.128860473632812M44.296,5.239313125610352L43.745,5.384408950805664L41.39,1.3054275512695312L55.792,1.2115325927734375L53.365,5.268388748168945L44.296,5.239313125610352M44.375,6.4756011962890625L52.665,6.434965133666992L48.52,13.654953002929688L44.375,6.4756011962890625M49.14,14.728824615478516L49.516,14.280618667602539L54.044,6.423862457275391L56.057,6.450868606567383L50.145,16.46953582763672L49.14,14.728824615478516Z" transform="matrix(1,0,0,1,0,0)"></path><path d="M54.214,18.888778686523438L48.196,29.025745391845703C48.177,29.152,47.833,29.697,48.133,30.21677017211914C48.258,30.433,48.52,30.686,49.176,30.723155975341797L50.568,30.77401351928711L48.451,34.32838439941406C48.39,34.422,48.089,35,48.389,35.5194091796875C48.514,35.736,48.8,36.032,49.426,36.01713562011719L63.98,35.90519714355469C64.092,35.898,64.753,35.863,65.036,35.35349655151367C65.202,35.142,65.269,34.757,64.939,34.18551254272461L56.109,18.891502380371094C56.059,18.805,55.734,18.242,55.151,18.232175827026367C54.893,18.266,54.497,18.379,54.214,18.888778686523438M61.02,30.7783260345459L61.572,30.633230209350586L63.927,34.71221160888672L49.524,34.80611038208008L51.951,30.749250411987305L61.02,30.7783260345459M60.942,29.542037963867188L52.651,29.582674026489258L56.797,22.362688064575195L60.942,29.542037963867188M56.177,21.288816452026367L55.8,21.73702049255371L51.272,29.59377670288086L49.259,29.566770553588867L55.172,19.548105239868164L56.177,21.288816452026367Z" transform="matrix(1,0,0,1,0,0)"></path><path d="M73.798,18.916162490844727L68.028,8.635934829711914C67.928,8.556,67.628,7.986,67.028,7.98586368560791C66.778,7.986,66.428,8.086,66.068,8.63593578338623L65.328,9.816014289855957L63.308,6.20631742477417C63.258,6.106,62.908,5.556,62.308,5.55624532699585C62.058,5.556,61.658,5.656,61.358,6.2063188552856445L54.178,18.865554809570312C54.128,18.966,53.828,19.556,54.128,20.055927276611328C54.228,20.306,54.528,20.556,55.188,20.555917739868164L72.848,20.555917739868164C72.948,20.556,73.598,20.556,73.898,20.05592918395996C73.998,19.816,74.098,19.416,73.798,18.916162490844727M60.098,18.865554809570312L59.948,19.41615104675293L55.238,19.416149139404297L62.358,6.895836353302002L64.658,11.02610969543457L60.098,18.865554809570312M61.208,19.416149139404297L65.318,12.215615272521973L69.498,19.416149139404297L61.208,19.416149139404297M70.738,19.41615104675293L70.538,18.865554809570312L65.998,11.015814781188965L67.028,9.286006927490234L72.748,19.416149139404297L70.738,19.41615104675293Z" transform="matrix(1,0,0,1,0,0)"></path><path d="M63.983,35.86341094970703L75.77,36.00580596923828C75.889,35.96,76.533,35.985,76.833,35.46485137939453C76.958,35.249,77.046,34.896,76.75,34.30839538574219L76.098,33.077457427978516L80.235,33.13364791870117C80.346,33.14,80.998,33.112,81.298,32.59269714355469C81.423,32.376,81.536,31.98,81.21,31.444896697998047L73.836,18.896732330322266C73.774,18.803,73.413,18.248,72.83,18.258060455322266C72.564,18.22,72.197,18.355,71.867,18.926057815551758L63.037,34.22006607055664C62.987,34.307,62.662,34.87,62.945,35.3793830871582C63.103,35.586,63.4,35.873,63.983,35.86341094970703M70.876,24.023605346679688L70.475,23.618972778320312L72.83,19.53999137878418L80.112,31.96554183959961L75.385,31.892126083374023L70.876,24.023605346679688M69.845,24.710163116455078L74.025,31.86919593811035L65.7,31.889514923095703L69.845,24.710163116455078M65.08,32.96338653564453L65.656,33.064910888671875L74.724,33.05789566040039L75.707,34.81470489501953L64.075,34.704097747802734L65.08,32.96338653564453Z" transform="matrix(1,0,0,1,0,0)"></path><path d="M64.014,39.43706512451172L52.226,39.294029235839844C52.107,39.341,51.463,39.316,51.163,39.83505630493164C51.038,40.052,50.95,40.405,51.246,40.99143981933594L51.898,42.2223014831543L47.762,42.16667175292969C47.65,42.16,46.999,42.188,46.699,42.70769500732422C46.574,42.924,46.46,43.321,46.787,43.85541915893555L54.16,56.403480529785156C54.222,56.497,54.583,57.052,55.166,57.04178237915039C55.433,57.08,55.799,56.945,56.129,56.37379837036133L64.959,41.07978820800781C65.009,40.993,65.334,40.43,65.051,39.92046356201172C64.893,39.714,64.597,39.427,64.014,39.43706512451172M57.12,51.276611328125L57.522,51.681514739990234L55.167,55.760498046875L47.884,43.33439636230469L52.611,43.407535552978516L57.12,51.276611328125M58.152,50.59032440185547L53.971,43.43096160888672L62.297,43.410972595214844L58.152,50.59032440185547M62.917,42.337100982666016L62.34,42.23530578613281L53.272,42.242061614990234L52.289,40.48505401611328L63.922,40.59638977050781L62.917,42.337100982666016Z" transform="matrix(1,0,0,1,0,0)"></path><path d="M73.782,56.41149139404297L79.8,46.2743034362793C79.819,46.148,80.163,45.603,79.863,45.08320236206055C79.738,44.867,79.476,44.614,78.82,44.5768928527832L77.428,44.5261116027832L79.544,40.972042083740234C79.606,40.878,79.907,40.301,79.607,39.78094482421875C79.483,39.565,79.196,39.267,78.569,39.283294677734375L64.016,39.39447021484375C63.904,39.401,63.243,39.437,62.96,39.94654083251953C62.794,40.159,62.728,40.543,63.057,41.11451721191406L71.887,56.40852355957031C71.937,56.495,72.262,57.058,72.845,57.0678596496582C73.103,57.034,73.5,56.921,73.782,56.41149139404297M66.976,44.521339416503906L66.424,44.667030334472656L64.069,40.588050842285156L78.472,40.493839263916016L76.045,44.55097198486328L66.976,44.521339416503906M67.054,45.75822067260742L75.345,45.7170524597168L71.199,52.93757247924805L67.054,45.75822067260742M71.819,54.011444091796875L72.196,53.562644958496094L76.724,45.70615005493164L78.737,45.73334884643555L72.824,55.75215530395508L71.819,54.011444091796875Z" transform="matrix(1,0,0,1,0,0)"></path><path d="M54.198,56.3846435546875L59.968,66.66400146484375C60.067,66.744,60.368,67.314,60.968,67.31407165527344C61.218,67.314,61.567,67.214,61.928,66.66400146484375L62.668,65.48392486572266L64.688,69.094482421875C64.738,69.194,65.088,69.745,65.688,69.74456024169922C65.938,69.745,66.338,69.644,66.638,69.09449005126953L73.818,56.434383392333984C73.868,56.334,74.168,55.744,73.868,55.24401092529297C73.768,54.995,73.468,54.744,72.808,54.744022369384766L55.148,54.744022369384766C55.048,54.744,54.398,54.744,54.098,55.24401092529297C53.998,55.484,53.898,55.885,54.198,56.3846435546875M67.898,56.434383392333984L68.048,55.8846549987793L72.758,55.88465881347656L65.638,68.40409851074219L63.338,64.2738265991211L67.898,56.434383392333984M66.788,55.8846549987793L62.678,63.08432388305664L58.498,55.8846549987793L66.788,55.8846549987793M57.258,55.8846549987793L57.458,56.434383392333984L61.998,64.28412628173828L60.968,66.01393127441406L55.248,55.8846549987793L57.258,55.8846549987793Z" transform="matrix(1,0,0,1,0,0)"></path></g></symbol></defs><rect width="100%" height="100%" id="BgenPttrnRctLayer1" fill="url(&quot;#BgenPttrnLayer1&quot;)"></rect><rect width="100%" height="100%" id="BgenPttrnRctLayer2" fill="url(&quot;#BgenPttrnLayer2&quot;)"></rect></svg>